<?xml version="1.0" standalone="no"?>
<!DOCTYPE svg PUBLIC "-//W3C//DTD SVG 20010904//EN"
 "http://www.w3.org/TR/2001/REC-SVG-20010904/DTD/svg10.dtd">
<svg version="1.0" xmlns="http://www.w3.org/2000/svg"
 width="3000.000000pt" height="3000.000000pt" viewBox="0 0 3000.000000 3000.000000"
 preserveAspectRatio="xMidYMid meet">
<metadata>
Created by potrace 1.11, written by Peter Selinger 2001-2013
</metadata>
<g transform="translate(0.000000,3000.000000) scale(0.100000,-0.100000)"
fill="#000000" stroke="none">
<path d="M14910 26948 c3 -3160 -1 -4648 -13 -4648 -7 0 -37 6 -67 14 -30 8
-80 19 -110 25 -30 6 -75 15 -100 20 -25 5 -58 12 -75 14 -16 3 -55 10 -85 16
-30 6 -73 13 -95 16 -22 2 -49 6 -60 9 -28 5 -124 18 -160 22 -16 1 -70 7
-120 13 -274 32 -522 44 -900 44 -235 1 -472 -7 -570 -17 -16 -2 -66 -7 -110
-11 -289 -26 -619 -82 -895 -150 -58 -14 -114 -28 -125 -30 -121 -28 -554
-173 -670 -224 -11 -5 -65 -28 -120 -52 -110 -46 -369 -172 -455 -220 -130
-73 -202 -116 -305 -183 -60 -39 -112 -73 -115 -76 -3 -3 -34 -25 -70 -50 -36
-24 -69 -48 -75 -52 -5 -4 -56 -43 -111 -85 -171 -132 -280 -229 -469 -418
-188 -188 -252 -261 -418 -474 -240 -307 -456 -668 -629 -1051 -122 -267 -274
-712 -334 -972 -2 -10 -6 -28 -10 -40 -3 -13 -7 -34 -10 -48 -3 -14 -7 -33
-10 -42 -3 -10 -7 -28 -10 -40 -2 -13 -6 -34 -9 -48 -14 -65 -27 -127 -30
-150 -2 -14 -13 -81 -24 -150 -25 -157 -29 -181 -37 -261 -3 -35 -8 -66 -9
-69 -2 -3 -7 -51 -10 -105 -4 -55 -8 -116 -11 -135 -27 -249 -21 -883 10
-1206 13 -132 24 -230 31 -274 5 -32 16 -116 20 -155 5 -45 55 -316 59 -324 3
-4 7 -26 11 -49 9 -62 83 -350 123 -482 127 -415 289 -786 495 -1135 23 -38
45 -71 49 -73 5 -2 8 -8 8 -14 0 -11 108 -176 183 -278 194 -266 413 -510 640
-713 38 -34 75 -67 81 -72 57 -54 244 -197 371 -285 55 -38 105 -73 111 -77 5
-5 21 -15 35 -23 13 -8 83 -50 154 -93 143 -86 434 -232 590 -297 55 -22 109
-45 120 -50 67 -30 438 -154 494 -165 13 -2 45 -11 70 -20 79 -25 428 -103
548 -121 21 -3 79 -12 130 -20 51 -8 114 -16 140 -19 26 -2 57 -6 69 -9 19 -4
76 -9 219 -21 315 -26 864 -26 1235 0 182 13 217 16 240 19 14 2 57 7 95 11
129 12 160 16 185 20 28 5 71 11 145 20 45 5 97 13 190 30 154 27 212 38 290
55 50 11 104 23 120 26 17 3 55 12 86 20 31 8 60 14 63 14 4 0 6 -843 6 -1872
0 -1030 -1 -1897 0 -1925 l0 -53 699 0 698 0 0 2064 c0 2012 1 2064 19 2083
10 11 37 42 59 68 22 26 45 52 50 59 9 9 165 189 239 276 12 14 53 61 91 105
38 44 79 91 91 105 121 140 177 205 219 254 28 33 57 66 66 75 8 9 55 62 103
119 49 56 90 101 91 100 7 -9 693 -1034 710 -1060 6 -9 137 -204 291 -434 237
-353 312 -465 414 -614 5 -8 52 -78 102 -155 51 -77 100 -148 110 -159 9 -10
22 -31 28 -47 7 -16 16 -29 21 -29 5 0 9 -6 9 -14 0 -8 3 -16 8 -18 10 -4 72
-97 72 -107 0 -5 3 -11 8 -13 10 -4 112 -157 112 -168 0 -4 3 -10 8 -12 10 -5
52 -66 52 -77 0 -5 4 -11 8 -13 5 -1 49 -64 99 -138 277 -417 479 -715 485
-718 5 -2 8 -7 8 -12 0 -4 49 -81 110 -171 60 -90 114 -171 120 -179 5 -8 37
-55 70 -104 33 -48 60 -92 60 -96 0 -5 4 -10 8 -12 6 -2 243 -352 571 -846
l75 -112 828 0 828 0 -43 65 c-23 35 -70 105 -104 155 -35 50 -63 95 -63 100
0 4 -4 10 -8 12 -4 2 -75 102 -157 223 -175 259 -257 380 -386 568 -52 76
-101 149 -109 162 -8 13 -71 107 -139 207 -69 101 -172 253 -230 338 -58 85
-153 226 -213 313 -59 87 -108 162 -108 167 0 5 -3 10 -7 12 -5 2 -35 44 -68
93 -33 50 -62 92 -65 95 -3 3 -9 13 -15 22 -22 37 -259 384 -275 403 -10 11
-19 25 -21 31 -2 6 -40 63 -84 128 -44 64 -84 124 -90 134 -5 9 -13 19 -16 22
-8 7 -193 282 -198 295 -2 6 -7 12 -10 15 -4 3 -43 59 -86 125 -44 66 -82 122
-85 125 -3 3 -24 32 -46 65 -111 165 -323 479 -369 545 -71 103 -297 437 -315
466 -8 13 -56 83 -106 156 -93 136 -218 321 -473 698 -79 118 -148 216 -153
218 -4 2 -8 7 -8 12 0 4 -24 43 -52 85 -29 42 -57 84 -63 93 -5 9 -12 19 -15
22 -3 3 -13 18 -23 33 -15 23 -16 30 -5 41 7 7 29 33 50 57 20 24 46 55 58 69
56 65 115 134 205 240 54 63 101 117 104 120 4 3 16 17 26 31 11 14 43 52 71
85 74 85 242 282 289 338 49 59 68 82 103 121 15 17 61 71 102 120 41 50 78
92 81 95 5 4 123 142 418 489 25 30 60 70 77 90 17 20 89 104 158 186 70 83
137 161 149 175 12 14 49 56 82 95 33 38 65 75 70 81 6 6 28 33 50 60 22 26
50 59 63 73 12 13 33 38 45 54 12 16 29 36 38 45 9 10 62 71 118 137 57 66
123 144 148 173 25 29 55 65 67 80 12 15 28 34 36 43 8 8 36 40 61 70 223 263
295 346 308 360 9 9 32 36 50 59 19 23 40 48 46 54 10 11 101 118 140 165 11
13 27 31 35 40 8 10 37 44 65 76 27 33 62 74 76 90 26 29 350 410 439 515 25
29 51 59 58 66 6 7 12 15 12 18 0 4 -390 5 -867 4 l-867 -3 -112 -138 c-61
-76 -122 -150 -135 -165 -13 -16 -40 -48 -59 -72 -51 -66 -54 -69 -71 -88 -8
-9 -33 -39 -55 -67 -21 -27 -61 -77 -89 -110 -27 -34 -65 -79 -83 -102 -19
-23 -41 -51 -50 -62 -10 -11 -28 -34 -42 -52 -14 -17 -39 -48 -56 -68 -16 -20
-149 -182 -294 -361 -251 -309 -385 -473 -433 -531 -12 -14 -35 -44 -52 -65
-16 -21 -38 -46 -47 -56 -10 -10 -18 -22 -18 -27 0 -5 -3 -11 -7 -13 -9 -3
-130 -149 -298 -358 -59 -74 -114 -140 -122 -146 -7 -6 -13 -16 -13 -22 0 -6
-3 -12 -7 -14 -5 -1 -28 -28 -53 -58 -25 -30 -47 -57 -50 -60 -3 -3 -30 -36
-60 -75 -54 -69 -92 -115 -117 -141 -7 -7 -13 -15 -13 -18 0 -3 -8 -14 -17
-24 -10 -10 -31 -35 -48 -56 -16 -21 -40 -50 -52 -64 -12 -15 -88 -108 -168
-207 -81 -99 -162 -198 -180 -220 -18 -22 -48 -58 -65 -80 -17 -22 -47 -58
-65 -80 -18 -22 -79 -96 -135 -165 -56 -69 -109 -134 -118 -145 -93 -113 -162
-201 -297 -380 -88 -115 -161 -212 -164 -215 -4 -3 -22 -27 -41 -55 -40 -58
-49 -70 -72 -96 -10 -10 -18 -21 -18 -24 0 -5 -24 -38 -112 -157 -7 -9 -19
-25 -26 -35 -7 -10 -49 -70 -95 -134 -45 -64 -96 -136 -113 -160 -39 -56 -74
-64 -75 -16 -1 47 -8 8676 -9 11550 l-1 2457 -690 0 -689 0 0 -422z m-1441
-5633 c79 -3 156 -7 170 -10 14 -2 60 -7 101 -10 116 -10 152 -14 190 -20 19
-3 51 -8 70 -10 37 -4 101 -15 135 -21 11 -3 36 -7 55 -10 19 -2 58 -9 85 -15
28 -6 61 -13 75 -15 14 -3 54 -12 90 -20 36 -9 76 -18 90 -20 14 -3 39 -9 55
-14 17 -5 57 -17 90 -26 33 -9 98 -29 145 -44 l85 -26 0 -4115 c0 -2263 -2
-4126 -3 -4140 -2 -14 -9 -26 -15 -26 -7 -1 -52 -13 -102 -28 -49 -15 -101
-29 -114 -32 -13 -2 -32 -8 -43 -14 -10 -5 -18 -8 -18 -5 0 2 -17 0 -37 -5
-109 -27 -238 -55 -302 -65 -18 -3 -43 -8 -55 -10 -47 -9 -207 -34 -252 -39
-76 -9 -128 -16 -144 -20 -8 -2 -55 -7 -105 -10 -49 -4 -108 -9 -130 -11 -232
-18 -622 -23 -805 -10 -181 13 -337 27 -365 32 -11 2 -40 6 -65 9 -62 8 -101
14 -130 20 -13 2 -42 7 -64 11 -22 3 -43 7 -46 9 -4 2 -28 7 -54 10 -26 4 -82
15 -124 26 -42 11 -88 22 -100 25 -131 28 -454 135 -559 184 -24 11 -45 20
-49 20 -3 0 -75 34 -159 75 -154 74 -361 192 -401 227 -11 10 -24 18 -28 18
-4 0 -18 8 -31 18 -12 9 -33 24 -45 32 -20 14 -140 106 -217 166 -139 110
-366 345 -517 534 -184 232 -371 556 -510 883 -76 178 -200 566 -230 718 -2
13 -12 57 -20 96 -9 40 -18 85 -21 100 -2 16 -10 53 -16 83 -6 30 -11 62 -11
70 0 8 -4 38 -9 65 -5 28 -12 70 -14 95 -6 52 -12 103 -21 175 -32 262 -37
802 -10 1175 14 190 40 382 82 605 31 167 32 173 39 195 3 10 8 27 10 37 36
176 147 531 215 688 5 11 23 54 40 95 32 75 139 292 179 363 11 20 30 54 42
75 52 93 216 329 310 447 99 125 368 404 456 474 23 18 52 42 65 53 92 81 348
256 503 345 193 111 611 295 648 285 4 -1 7 3 7 8 0 6 9 10 20 10 12 0 34 7
50 15 17 9 30 13 30 11 0 -3 12 -1 28 5 26 11 151 47 182 54 8 2 51 12 95 23
44 12 116 28 160 36 44 9 91 18 104 20 12 3 44 8 69 11 26 3 54 7 62 10 14 4
63 11 145 20 17 2 62 6 100 9 39 4 81 8 93 11 13 2 92 7 175 10 84 4 153 7
154 8 3 3 298 -2 442 -8z"/>
<path d="M719 6825 c-3 0 -5 -311 -2 -320 2 -7 4668 -10 14276 -9 7849 1
14277 2 14283 3 12 1 18 320 6 322 -5 1 -27876 5 -28563 4z"/>
<path d="M750 6440 l-36 -5 1 -100 0 -100 14285 0 14285 0 3 103 c3 100 2 102
-20 102 -13 1 -69 2 -126 3 -56 1 -102 -1 -102 -5 0 -4 -6 -5 -14 -2 -22 8
-466 10 -466 2 0 -4 -6 -5 -14 -2 -22 8 -466 10 -466 2 0 -4 -6 -5 -14 -2 -22
8 -466 10 -466 2 0 -4 -7 -5 -14 -2 -22 9 -146 10 -146 2 0 -4 -6 -5 -14 -2
-22 8 -466 10 -466 2 0 -4 -7 -5 -14 -2 -22 9 -146 10 -146 2 0 -4 -6 -5 -14
-2 -22 8 -466 10 -466 2 0 -4 -7 -5 -14 -2 -22 9 -146 10 -146 2 0 -4 -6 -5
-14 -2 -22 8 -466 10 -466 2 0 -4 -7 -5 -15 -1 -23 8 -1105 9 -1105 1 0 -4 -6
-5 -14 -2 -22 8 -466 10 -466 2 0 -4 -7 -5 -15 -2 -22 9 -2065 10 -2065 2 0
-4 -6 -5 -14 -2 -22 8 -466 10 -466 2 0 -4 -7 -5 -15 -2 -22 9 -2065 10 -2065
2 0 -4 -6 -5 -14 -2 -22 8 -466 10 -466 2 0 -4 -7 -5 -15 -2 -22 9 -2065 10
-2065 2 0 -4 -6 -5 -14 -2 -22 8 -466 10 -466 2 0 -4 -6 -5 -14 -2 -22 8
-1106 10 -1106 2 0 -4 -6 -5 -14 -2 -22 8 -466 10 -466 2 0 -4 -7 -5 -14 -2
-22 9 -146 10 -146 2 0 -4 -6 -5 -14 -2 -22 8 -466 10 -466 2 0 -4 -7 -5 -14
-2 -22 9 -146 10 -146 2 0 -4 -6 -5 -14 -2 -22 8 -466 10 -466 2 0 -4 -7 -5
-14 -2 -22 9 -146 10 -146 2 0 -4 -6 -5 -14 -2 -22 8 -466 10 -466 2 0 -4 -6
-5 -14 -2 -22 8 -466 10 -466 2 0 -4 -6 -5 -14 -2 -22 8 -466 10 -466 2 0 -4
-7 -5 -15 -2 -21 9 -1425 10 -1425 2 0 -4 -6 -5 -14 -2 -22 8 -466 10 -466 2
0 -4 -7 -5 -15 -2 -21 9 -1425 10 -1425 2 0 -4 -6 -5 -14 -2 -22 8 -466 10
-466 2 0 -4 -6 -5 -14 -2 -22 8 -466 10 -466 2 0 -4 -6 -5 -14 -2 -22 8 -466
10 -466 2 0 -4 -7 -5 -14 -2 -22 9 -146 10 -146 2 0 -4 -6 -5 -14 -2 -22 8
-466 10 -466 2 0 -4 -7 -5 -14 -2 -22 9 -146 10 -146 2 0 -4 -6 -5 -14 -2 -22
8 -466 10 -466 2 0 -4 -7 -5 -14 -2 -22 9 -146 10 -146 2 0 -4 -6 -5 -14 -2
-22 8 -466 10 -466 2 0 -4 -7 -5 -15 -1 -23 8 -1105 9 -1105 1 0 -4 -6 -5 -14
-2 -22 8 -466 10 -466 2 0 -4 -7 -5 -15 -2 -22 9 -2065 10 -2065 2 0 -4 -6 -5
-14 -2 -22 8 -466 10 -466 2 0 -4 -6 -5 -14 -2 -19 7 -232 10 -276 4z"/>
<path d="M1807 5584 c-1 -1 -33 -5 -72 -8 -79 -8 -107 -12 -150 -20 -16 -3
-43 -8 -60 -11 -44 -8 -195 -54 -235 -72 -95 -41 -131 -60 -195 -101 -133 -85
-235 -211 -274 -338 -46 -149 -19 -355 61 -472 89 -130 287 -229 533 -267 43
-6 180 -17 205 -16 20 1 36 1 365 -4 154 -2 289 -6 300 -8 11 -2 38 -8 60 -11
227 -41 333 -174 290 -362 -39 -168 -219 -302 -444 -330 -25 -3 -47 -7 -50 -9
-10 -6 -153 -16 -236 -17 -83 -1 -264 10 -275 17 -4 2 -22 7 -41 10 -65 11
-158 36 -236 64 -235 85 -380 207 -353 299 7 27 5 33 -16 46 -13 9 -26 16 -29
16 -3 0 -29 -48 -57 -107 -27 -60 -71 -153 -97 -208 -64 -135 -81 -172 -81
-179 0 -3 9 -10 21 -17 17 -9 25 -7 46 13 49 45 124 26 355 -92 21 -11 38 -18
38 -15 0 2 20 -4 45 -15 25 -11 45 -17 45 -15 0 2 15 -2 34 -10 18 -8 44 -16
57 -19 144 -30 237 -47 286 -52 73 -8 405 -8 456 0 21 3 57 8 80 11 57 7 77
11 170 35 203 53 353 133 472 254 99 99 136 169 172 321 9 39 3 172 -11 247
-45 233 -229 390 -536 456 -125 27 -182 32 -455 37 -540 11 -592 16 -700 66
-75 35 -112 73 -129 130 -35 123 26 247 164 335 25 15 47 29 50 30 3 0 23 9
45 19 48 21 124 44 204 60 96 19 385 26 476 11 22 -3 54 -8 70 -11 45 -7 124
-28 190 -49 75 -24 173 -76 220 -118 40 -36 45 -44 45 -83 0 -34 5 -47 19 -55
11 -5 22 -10 25 -10 3 0 30 51 60 113 29 61 81 170 115 240 33 70 61 131 61
136 0 4 -10 13 -22 18 -19 9 -28 6 -50 -14 -45 -42 -95 -41 -233 7 -108 36
-287 87 -340 95 -140 21 -197 26 -316 28 -78 1 -141 1 -142 1z"/>
<path d="M19060 5579 c-110 -10 -155 -17 -258 -44 -87 -23 -121 -36 -232 -88
-44 -21 -160 -87 -170 -97 -3 -3 -27 -23 -55 -45 -128 -102 -243 -242 -316
-385 -24 -47 -44 -89 -46 -95 -1 -5 -9 -30 -19 -55 -44 -119 -59 -225 -58
-405 1 -108 6 -160 23 -230 25 -100 24 -98 76 -210 73 -155 183 -287 330 -397
87 -65 265 -156 360 -183 33 -9 71 -21 85 -26 83 -28 281 -52 445 -52 94 0
252 10 263 17 4 2 30 7 57 10 28 4 75 13 105 21 30 8 66 16 80 19 57 12 146
39 172 52 15 8 28 12 28 10 0 -6 73 24 160 67 97 48 205 113 298 181 69 50 82
65 82 88 0 21 -6 29 -26 34 -48 12 -55 50 -54 307 1 128 4 244 7 259 4 20 14
30 39 38 26 9 34 17 34 36 l0 24 -490 1 c-269 1 -493 2 -497 4 -56 15 -83 40
-92 87 -5 26 -12 33 -33 35 l-26 2 0 -255 1 -254 28 0 c21 0 29 5 29 18 0 24
38 59 73 68 32 8 567 12 568 4 0 -3 2 -76 2 -163 2 -147 1 -159 -18 -176 -89
-77 -329 -179 -508 -215 -117 -23 -193 -30 -347 -29 -116 0 -163 4 -235 23
-409 102 -663 421 -664 835 -1 243 68 443 204 593 89 97 237 192 360 228 141
42 185 48 375 48 152 0 222 -6 293 -25 23 -6 52 -13 65 -15 22 -4 102 -29 132
-41 8 -4 17 -7 20 -8 106 -36 252 -126 305 -188 34 -39 40 -66 21 -95 -6 -11
27 -51 44 -51 3 -1 31 39 64 87 32 48 98 146 147 218 49 72 89 136 89 142 0 6
-10 17 -22 23 -17 9 -24 9 -33 -4 -17 -23 -62 -38 -93 -30 -15 3 -51 21 -80
40 -74 47 -216 116 -287 141 -74 25 -238 69 -285 76 -19 3 -46 8 -60 10 -14 3
-54 7 -90 10 -36 3 -65 5 -65 6 0 5 -245 4 -305 -1z"/>
<path d="M5102 5264 c-3 -38 -19 -61 -49 -71 -16 -4 -427 -8 -915 -8 l-888 1
0 -28 c0 -24 4 -28 28 -28 36 0 48 -9 61 -44 16 -41 15 -1677 -1 -1711 -10
-22 -40 -38 -73 -40 -5 0 -11 -12 -13 -27 l-3 -27 908 0 c499 -1 922 -3 938
-6 35 -7 55 -29 55 -62 0 -19 5 -23 28 -23 l28 0 -1 217 0 218 -25 0 c-19 0
-25 -6 -31 -34 -15 -71 41 -66 -774 -68 l-735 -2 -1 72 c-2 236 1 538 5 545 2
4 228 7 501 6 479 -1 497 -2 523 -21 17 -13 28 -31 30 -51 3 -27 7 -32 31 -32
l27 0 0 225 0 225 -27 0 c-23 0 -27 -5 -33 -40 -4 -26 -14 -44 -29 -52 -17
-10 -136 -13 -524 -14 -454 -1 -503 1 -503 15 -1 22 -1 411 -1 487 l1 60 698
-1 c383 -1 704 -3 713 -4 20 -1 48 -41 52 -73 3 -16 12 -24 29 -26 l26 -3 1
225 0 226 -27 0 c-22 0 -28 -5 -30 -26z"/>
<path d="M12720 5283 c-13 -3 -15 -30 -13 -176 3 -307 0 -277 28 -277 14 0 26
6 26 13 1 6 2 17 4 22 1 6 3 18 3 28 4 41 48 45 417 44 l350 -2 0 -776 c0
-736 -1 -778 -18 -797 -10 -11 -34 -23 -53 -26 -27 -6 -34 -12 -34 -31 l0 -23
249 -1 249 -1 4 25 c4 19 1 25 -12 25 -43 0 -80 22 -88 53 -5 18 -9 375 -9
794 l0 762 349 0 c206 -1 362 -5 379 -11 28 -10 44 -36 48 -82 1 -16 51 -19
52 -2 4 39 3 436 -1 437 -29 5 -50 5 -51 0 -8 -72 -18 -88 -60 -96 -47 -10
-1707 -5 -1734 5 -27 10 -36 25 -39 64 -1 25 -18 35 -46 29z"/>
<path d="M6198 5214 c-2 -1 -29 -4 -60 -8 -316 -31 -621 -215 -772 -465 -98
-163 -135 -311 -131 -528 3 -144 5 -165 26 -248 16 -64 70 -196 102 -250 151
-250 401 -396 753 -441 63 -8 306 -8 364 0 207 27 376 86 560 194 125 73 138
77 191 49 29 -15 40 -17 58 -8 11 7 21 17 21 23 0 9 -175 246 -225 305 -5 7
-23 30 -40 52 -34 45 -35 46 -57 29 -14 -11 -15 -21 -8 -58 10 -54 -2 -81 -58
-132 -104 -94 -305 -176 -482 -196 -146 -16 -318 -5 -422 28 -249 80 -421 259
-481 500 -17 66 -20 248 -6 305 5 22 11 51 14 65 16 103 121 272 219 354 83
68 119 90 231 136 22 10 67 23 75 23 3 0 15 3 27 8 61 23 241 30 355 13 175
-26 394 -114 474 -189 34 -32 36 -38 32 -78 -5 -38 -2 -44 20 -55 14 -6 27
-11 28 -9 1 1 39 79 83 172 45 94 92 192 105 218 l24 48 -22 10 c-18 9 -30 6
-60 -14 -41 -29 -43 -29 -171 23 -134 54 -266 93 -355 105 -25 3 -54 9 -64 12
-18 5 -343 12 -348 7z"/>
<path d="M23715 5208 c-33 -4 -66 -6 -72 -3 -7 2 -13 -1 -13 -7 0 -6 -3 -9 -6
-6 -17 18 -277 -74 -366 -129 -21 -13 -42 -23 -48 -23 -5 0 -10 -4 -10 -8 0
-4 -14 -16 -31 -26 -17 -10 -63 -48 -101 -84 -113 -107 -192 -231 -240 -377
-44 -134 -49 -172 -48 -403 0 -13 7 -58 16 -100 69 -342 300 -598 641 -711 50
-17 113 -33 139 -37 27 -3 52 -8 55 -10 25 -15 306 -22 409 -10 377 43 656
217 813 506 32 60 74 166 83 215 2 11 6 31 10 45 30 129 16 389 -26 495 -4 11
-14 36 -21 55 -36 101 -137 251 -223 333 -142 134 -355 238 -556 272 -19 3
-44 8 -54 12 -31 9 -285 10 -351 1z m290 -241 c135 -19 211 -46 371 -135 27
-15 164 -151 164 -163 0 -4 6 -14 13 -21 19 -18 73 -134 91 -193 50 -163 38
-364 -33 -519 -93 -205 -264 -344 -504 -408 -66 -18 -110 -22 -227 -22 -154
-1 -175 2 -285 34 -69 20 -177 68 -183 83 -2 4 -8 7 -14 7 -31 0 -163 127
-213 205 -42 65 -75 134 -75 156 0 10 -4 20 -9 23 -14 9 -31 122 -33 221 -3
166 49 325 151 455 121 156 311 255 531 277 30 3 56 6 58 8 3 3 163 -4 197 -8z"/>
<path d="M7393 5173 c-9 -23 6 -43 31 -43 17 0 32 -10 43 -27 16 -24 18 -75
18 -672 1 -588 3 -651 19 -706 44 -149 149 -264 314 -345 81 -40 210 -80 277
-86 22 -2 46 -6 54 -9 58 -22 521 -22 584 0 6 2 30 6 52 9 118 14 264 69 366
137 69 47 152 136 185 201 55 108 55 116 57 812 2 618 3 645 21 665 11 12 30
21 43 21 12 0 23 3 24 8 0 4 2 15 4 25 4 21 21 20 -237 21 l-218 2 0 -28 c0
-22 5 -28 21 -28 36 0 58 -19 65 -58 9 -47 9 -1129 0 -1199 -11 -91 -52 -172
-116 -230 -21 -19 -122 -76 -140 -79 -3 0 -31 -8 -63 -18 -110 -33 -215 -45
-387 -41 -207 4 -257 11 -378 56 -160 58 -232 133 -264 275 -11 46 -14 189
-13 649 0 543 1 593 17 617 11 16 29 28 45 30 22 2 28 8 28 28 l0 25 -224 1
c-175 0 -224 -3 -228 -13z"/>
<path d="M9827 5183 c-2 -2 -2 -15 1 -28 3 -19 11 -25 31 -25 36 0 59 -19 69
-55 11 -38 9 -1662 -2 -1693 -7 -21 -37 -44 -64 -48 -31 -5 -40 -14 -35 -33 5
-19 13 -20 243 -20 176 0 239 3 243 12 8 23 -8 42 -38 44 -35 3 -65 34 -66 72
-1 14 -2 183 -3 374 -1 302 1 350 14 356 8 3 160 6 338 5 264 -1 325 -3 336
-15 8 -8 104 -158 215 -334 110 -176 204 -324 209 -330 16 -21 42 -84 42 -104
0 -12 -6 -22 -12 -22 -7 -1 -17 -2 -23 -4 -5 -1 -16 -3 -23 -3 -8 -1 -12 -11
-10 -24 l3 -23 232 -2 c194 -2 232 0 237 12 6 17 -17 43 -47 51 -14 3 -47 43
-89 107 -36 56 -128 197 -204 312 -75 116 -161 247 -190 292 l-53 82 47 6
c322 39 477 209 473 520 -3 172 -42 282 -137 384 -31 34 -60 59 -64 56 -5 -3
-11 -1 -15 5 -5 8 -45 29 -77 39 -100 33 -106 33 -845 36 -403 1 -734 0 -736
-2z m1289 -226 c56 -3 121 -11 145 -19 94 -28 151 -127 151 -263 1 -150 -55
-247 -158 -275 -64 -18 -1041 -23 -1046 -6 -2 6 -3 135 -3 286 l1 275 84 5
c104 6 687 4 826 -3z"/>
<path d="M12093 5181 c-5 -3 -8 -12 -7 -18 1 -7 2 -17 3 -23 0 -5 15 -10 31
-10 37 0 70 -31 71 -67 1 -16 2 -396 3 -847 1 -762 0 -821 -16 -847 -10 -16
-27 -30 -38 -30 -11 -1 -26 -2 -32 -3 -7 -1 -16 -8 -19 -16 -15 -38 -4 -39
244 -39 l242 1 1 24 c1 13 -1 24 -5 25 -49 5 -68 11 -85 28 -20 20 -20 32 -21
848 0 455 2 843 6 862 10 43 20 53 66 60 37 6 40 11 34 49 -1 9 -465 12 -478
3z"/>
<path d="M14760 5158 c0 -23 4 -28 23 -28 26 0 88 -42 123 -81 11 -13 99 -136
194 -274 95 -137 189 -272 209 -300 19 -27 64 -93 100 -145 36 -52 68 -97 71
-100 3 -3 17 -23 30 -45 13 -22 27 -42 30 -45 3 -3 16 -20 29 -38 l24 -34 -2
-333 c0 -188 -5 -344 -10 -358 -8 -21 -49 -55 -58 -49 -12 8 -23 -2 -23 -22
l0 -25 245 0 245 0 0 25 c0 13 -3 24 -7 25 -43 4 -70 12 -81 23 -13 12 -26 75
-22 111 0 11 1 26 1 33 0 11 -1 119 0 160 0 9 -1 106 -1 214 l-1 197 110 138
c61 76 114 143 118 148 5 6 67 84 138 175 237 301 442 555 463 573 11 10 39
21 62 24 37 5 41 8 38 32 l-3 26 -267 1 -268 1 0 -29 c0 -25 3 -28 35 -28 29
0 36 -4 41 -26 7 -28 2 -37 -102 -169 -35 -44 -104 -132 -154 -195 -50 -63
-96 -122 -103 -130 -7 -8 -63 -79 -126 -158 l-113 -143 -44 63 c-24 35 -48 70
-54 78 -6 8 -80 114 -165 235 -84 121 -158 225 -164 232 -6 7 -11 16 -11 22 0
5 -3 11 -8 13 -12 5 -79 103 -86 125 -7 22 15 52 40 54 8 1 20 2 27 3 6 0 12
12 12 26 l0 25 -267 1 -268 0 0 -28z"/>
<path d="M20760 5158 c0 -25 3 -28 33 -28 22 0 41 -8 53 -21 18 -20 19 -51 21
-858 1 -460 -1 -849 -4 -864 -7 -34 -35 -50 -95 -56 -5 -1 -8 -12 -8 -25 l0
-24 245 -1 245 0 0 24 c0 14 -4 26 -10 26 -49 6 -77 20 -88 44 -12 25 -19 751
-8 763 7 6 665 9 675 2 4 -3 28 -36 53 -75 93 -145 153 -240 163 -257 6 -10
48 -78 94 -150 128 -201 157 -251 164 -280 7 -28 -3 -42 -35 -44 -10 -1 -22
-2 -27 -3 -5 0 -8 -12 -7 -26 l1 -24 235 2 c231 2 235 2 236 23 1 15 -8 24
-33 33 -27 10 -50 37 -121 144 -48 72 -89 136 -92 142 -3 5 -44 69 -91 140
-182 276 -240 367 -236 372 5 4 40 10 112 17 17 2 43 9 58 15 16 6 33 11 38
11 5 0 17 4 27 9 9 5 34 17 56 27 21 11 61 42 89 69 91 90 136 228 130 399 -7
215 -96 374 -248 445 -118 55 -103 55 -892 56 l-733 2 0 -29z m1321 -203 c83
-5 150 -25 190 -57 46 -37 79 -149 74 -248 -7 -149 -47 -212 -160 -251 -32
-11 -141 -14 -540 -14 l-500 0 -3 287 -2 287 107 3 c156 4 733 0 834 -7z"/>
<path d="M25136 5173 c-9 -22 5 -43 29 -43 12 0 30 -9 41 -21 18 -20 19 -47
21 -665 1 -543 4 -652 17 -703 62 -243 294 -407 646 -457 160 -22 475 -22 590
1 14 3 50 10 82 15 174 32 315 101 425 209 59 58 94 112 124 197 21 58 22 73
23 714 2 492 5 661 14 677 7 13 27 26 45 31 24 6 33 14 35 33 l3 26 -227 -1
-228 -1 -1 -27 c-2 -24 2 -28 25 -28 15 0 35 -9 46 -21 18 -20 19 -46 19 -617
1 -329 -3 -617 -7 -641 -12 -68 -54 -149 -99 -193 -71 -69 -220 -127 -374
-146 -122 -15 -390 -7 -482 13 -88 19 -118 28 -128 35 -5 4 -21 10 -35 13 -35
8 -120 66 -150 101 -92 109 -93 111 -92 796 0 322 3 595 6 608 8 34 14 41 49
50 24 6 33 14 35 33 l3 25 -225 0 c-180 1 -226 -2 -230 -13z"/>
<path d="M27570 5158 c0 -25 3 -28 33 -28 53 0 70 -27 74 -118 4 -94 5 -144 3
-157 -2 -14 -2 -319 1 -325 1 -3 1 -9 0 -14 -5 -25 -3 -297 2 -302 3 -3 1 -18
-3 -34 -4 -16 -6 -30 -4 -32 4 -5 5 -37 3 -288 0 -102 0 -189 1 -195 1 -5 1
-30 1 -55 -1 -25 -2 -83 -2 -130 -1 -79 -18 -142 -37 -139 -4 1 -22 -2 -39 -6
-26 -6 -33 -13 -33 -31 l0 -24 243 2 c238 3 242 3 245 24 3 18 -5 23 -41 32
-31 8 -47 19 -55 37 -18 38 -17 735 1 736 6 0 215 2 462 3 248 2 461 6 475 9
14 4 38 10 55 13 16 4 36 10 45 14 8 5 46 23 85 41 122 57 243 197 280 326 40
138 12 333 -64 448 -56 85 -182 169 -286 190 -16 4 -52 11 -80 17 -32 7 -292
11 -707 12 l-658 2 0 -28z m1205 -203 c122 -14 182 -36 239 -86 131 -115 99
-390 -54 -469 -81 -41 -109 -44 -567 -45 l-443 -2 0 303 0 303 48 3 c78 5 723
-1 777 -7z"/>
</g>
</svg>
